# xmcd
#
# Track frame offsets:
#	150
#	13232
#	31451
#	47408
#	60915
#	75970
#	98039
#	117049
#	133818
#	148418
#	159367
#	178022
#	197424
#	211293
#	224468
#	245032
#	260907
#
# Disc length: 3660 seconds
#
# Revision: 0
# Processed by: cddbd v1.4PL0 Copyright (c) Steve Scherf et al.
# Submitted via: EasyCDDAExtractor 4.5.0.2
#
DISCID=f10e4a11
DTITLE=Cássia Eller - Acústico MTV
DYEAR=2001
DGENRE=Pop/Rock
TTITLE0=Non, je ne regrete rien
TTITLE1=Malandragem
TTITLE2=E.c.t.
TTITLE3=Vá morar com o diabo
TTITLE4=Partido alto
TTITLE5=1o de julho
TTITLE6=Luz fos olhos
TTITLE7=Todo amor que houver nessa vida
TTITLE8=Queremos saber
TTITLE9=Por enquanto
TTITLE10=Relicário
TTITLE11=Segundo sol
TTITLE12=Nós
TTITLE13=Sgt. pepper's lonely hearts club band
TTITLE14=De esquina
TTITLE15=Quando a maré encher
TTITLE16=Top top
EXTD=
EXTT0=
EXTT1=
EXTT2=
EXTT3=
EXTT4=
EXTT5=
EXTT6=
EXTT7=
EXTT8=
EXTT9=
EXTT10=
EXTT11=
EXTT12=
EXTT13=
EXTT14=
EXTT15=
EXTT16=
PLAYORDER=
